# AST/ASF file generated using VICON BodyLanguage
# -----------------------------------------------
:version 1.10
:name VICON
:units
  mass 1.0
  length 0.45
  angle deg
:documentation
   .ast/.asf automatically generated from VICON data using
   VICON BodyBuilder and BodyLanguage model FoxedUp or BRILLIANT.MOD
:root
   order TX TY TZ RX RY RZ
   axis XYZ
   position 0 0 0  
   orientation 0 0 0 
:bonedata
  begin
     id 1 
     name lhipjoint
     direction 0.660183 -0.676772 0.325788 
     length 2.75133 
     axis 0 0 0  XYZ
  end
  begin
     id 2 
     name lfemur
     direction 0.34202 -0.939693 0  
     length 7.70317  
     axis 0 0 20  XYZ
    dof rx ry rz
    limits (-160.0 20.0)
           (-70.0 70.0)
           (-60.0 70.0)
  end
  begin
     id 3 
     name ltibia
     direction 0.342105 -0.939662 0   
     length 7.18701   
     axis 0 0 20   XYZ
    dof rx
    limits (-10.0 170.0)
  end
  begin
     id 4 
     name lfoot
     direction 0.14163 -0.389126 0.910232   
     length 2.41719   
     axis -90 7.62852e-016 20   XYZ
    dof rx rz
    limits (-45.0 90.0)
           (-70.0 20.0)
  end
  begin
     id 5 
     name ltoes
     direction 1.53533e-011 -4.21926e-011 1   
     length 1.18611   
     axis -90 7.62852e-016 20   XYZ
    dof rx
    limits (-90.0 20.0)
  end
  begin
     id 6 
     name rhipjoint
     direction -0.6658 -0.67229 0.323631   
     length 2.76968  
     axis 0 0 0  XYZ 
  end
  begin
     id 7 
     name rfemur
     direction -0.34202 -0.939693 0   
     length 7.92547   
     axis 0 0 -20   XYZ
    dof rx ry rz
    limits (-160.0 20.0)
           (-70.0 70.0)
           (-70.0 60.0)
  end
  begin
     id 8 
     name rtibia
     direction -0.342022 -0.939692 0   
     length 7.22641   
     axis 0 0 -20   XYZ
    dof rx
    limits (-10.0 170.0)
 end
 begin
     id 9 
     name rfoot
     direction -0.105675 -0.29034 0.951071   
     length 2.48149  
     axis -90 -7.62852e-016 -20   XYZ
    dof rx rz
    limits (-45.0 90.0)
           (-20.0 70.0)
  end
  begin
     id 10 
     name rtoes
     direction -1.5349e-011 -4.21859e-011 1   
     length 1.23343   
     axis -90 -7.62852e-016 -20   XYZ
    dof rx
    limits (-90.0 20.0)
  end
  begin
     id 11 
     name lowerback
     direction 0.0104173 0.993624 -0.112266   
     length 2.00527   
     axis 0 0 0   XYZ
    dof rx ry rz
    limits (-20.0 45.0)
           (-30.0 30.0)
           (-30.0 30.0)
  end
  begin
     id 12 
     name upperback
     direction 0.00733149 0.999856 -0.0152913   
     length 2.01385   
     axis 0 0 0   XYZ
    dof rx ry rz
    limits (-20.0 45.0)
           (-30.0 30.0)
           (-30.0 30.0)
  end
  begin
     id 13 
     name thorax
     direction 0.0026304 0.999318 0.036841   
     length 2.03734   
     axis 0 0 0   XYZ
    dof rx ry rz
    limits (-20.0 45.0)
           (-30.0 30.0)
           (-30.0 30.0)
  end
  begin
     id 14 
     name lowerneck
     direction 0.0293154 0.998757 0.0403082   
     length 1.65303   
     axis 0 0 0   XYZ
    dof rx ry rz
    limits (-20.0 45.0)
           (-30.0 30.0)
           (-30.0 30.0)
  end
  begin
     id 15 
     name upperneck
     direction -0.0376619 0.998184 -0.0470083   
     length 1.60926   
     axis 0 0 0   XYZ
    dof rx ry rz
    limits (-20.0 45.0)
           (-30.0 30.0)
           (-30.0 30.0)
  end
  begin
     id 16
     name head
     direction -0.0170133 0.999635 -0.0209778  
     length 1.73625  
     axis 0 0 0   XYZ
    dof rx ry rz
    limits (-20.0 45.0)
           (-30.0 30.0)
           (-30.0 30.0)
  end
  begin
     id 17 
     name lclavicle
     direction 0.919857 0.39181 -0.0186333  
     length 3.75313  
     axis 0 0 0   XYZ
    dof ry rz
    limits (-20.0 10.0)
           (0.0 20.0)
  end
  begin
     id 18 
     name lhumerus
     direction 1 -4.48988e-011 1.44029e-027   
     length 5.49313   
     axis 180 -30 -90   XYZ
    dof rx ry rz
    limits (-60.0 90.0)
           (-90.0 90.0)
           (-90.0 90.0)
  end
  begin
     id 19
     name lradius
     direction 1 -4.48924e-011 7.46281e-027   
     length 3.29037   
     axis 180 -30 -90   XYZ
    dof rx
    limits (-10.0 170.0)
  end
  begin
     id 20
     name lwrist
     direction 1 -4.48955e-011 2.19879e-026   
     length 1.64519   
     axis -1.34358e-014 90 90   XYZ
    dof ry
    limits (-180.0 0.0)
 end
  begin
     id 21 
     name lhand
     direction 1 -4.48978e-011 4.39747e-026   
     length 0.729656   
     axis -2.80598e-014 90 90   XYZ
    dof rx rz
    limits (-90.0 90.0)
           (-45.0 45.0)
  end
  begin
     id 22 
     name lfingers
     direction 1 -4.49071e-011 8.79411e-026   
     length 0.588268   
     axis -5.61193e-014 90 90   XYZ
    dof rx
    limits (0.0 90.0)
  end
  begin
     id 23
     name lthumb
     direction 0.707107 -6.34817e-011 0.707107   
     length 0.844638   
     axis -90 45 -9.86923e-015   XYZ
    dof rx rz
    limits (-45.0 45.0)
           (-45.0 45.0)
  end
  begin
     id 24 
     name rclavicle
     direction -0.919898 0.388279 0.0550233   
     length 3.7171  
     axis 0 0 0   XYZ 
    dof ry rz
    limits (-10.0 20.0)
           (-20.0 0.0)
  end
  begin
     id 25 
     name rhumerus
     direction -1 -4.48968e-011 9.98372e-028  
     length 5.23684   
     axis 180 30 90   XYZ
    dof rx ry rz
    limits (-90.0 60.0)
           (-90.0 90.0)
           (-90.0 90.0)
  end
  begin
     id 26 
     name rradius
     direction -1 -4.48956e-011 1.01023e-026   
     length 3.38251   
     axis 180 30 90   XYZ
    dof rx
    limits (-10.0 170.0)
  end
  begin
     id 27 
     name rwrist
     direction -1 -4.4892e-011 2.19886e-026   
     length 1.69126   
     axis -1.34358e-014 -90 -90   XYZ
    dof ry
    limits (-180.0 0.0)
  end
  begin
     id 28
     name rhand
     direction -1 -4.49024e-011 4.39727e-026   
     length 0.691454   
     axis -2.80598e-014 -90 -90   XYZ
    dof rx rz
    limits (-90.0 90.0)
           (-45.0 45.0)
  end
  begin
     id 29
     name rfingers
     direction -1 -4.49097e-011 8.79388e-026   
     length 0.557468   
     axis -5.61193e-014 -90 -90   XYZ
    dof rx
    limits (0.0 90.0)
  end
  begin
     id 30
     name rthumb
     direction -0.707107 -6.34938e-011 0.707107   
     length 0.800416   
     axis -90 -45 9.86923e-015   XYZ
    dof rx rz
    limits (-45.0 45.0)
           (-45.0 45.0)
  end
:hierarchy
  begin
    root lhipjoint rhipjoint lowerback
    lhipjoint lfemur
    lfemur ltibia
    ltibia lfoot
    lfoot ltoes
    rhipjoint rfemur
    rfemur rtibia
    rtibia rfoot
    rfoot rtoes
    lowerback upperback
    upperback thorax
    thorax lowerneck lclavicle rclavicle
    lowerneck upperneck
    upperneck head
    lclavicle lhumerus
    lhumerus lradius
    lradius lwrist
    lwrist lhand lthumb
    lhand lfingers
    rclavicle rhumerus
    rhumerus rradius
    rradius rwrist
    rwrist rhand rthumb
    rhand rfingers
  end

#!OML:ASF H:\BabyWalks\Project 1\Capture day 1\Session 1\baby.ASF
:FULLY-SPECIFIED
:DEGREES
180
root -29.5271 17.0247 -2.23206 -62.8166 84.2394 -65.6652
lowerback 21.2027 -3.03434 3.90353
upperback 7.12118 -2.08621 6.71808
thorax -3.96184 -0.785143 5.52377
lowerneck -4.33436 2.26012 2.56574
upperneck -15.8347 2.38534 -9.70481
head -3.82602 1.698 -3.47546
rclavicle 1.98785e-014 -3.89618e-014
rhumerus -44.591 30.7563 -79.0097
rradius 41.6558
rwrist 3.19626
rhand -3.58774 -15.4357
rfingers 7.12502
rthumb 22.1498 -44.1868
lclavicle 1.98785e-014 -3.89618e-014
lhumerus -46.8755 -7.92291 86.182
lradius 54.7569
lwrist 2.7632
lhand -9.82989 8.22878
lfingers 7.12502
lthumb 16.1475 37.5761
rfemur -17.7843 10.7796 23.4687
rtibia 40.314
rfoot -23.9899 -4.3298
rtoes -9.75062
lfemur -22.1515 7.19548 -6.31967
ltibia 69.1219
lfoot -21.758 -22.9622
ltoes 0.583179
181
root -29.389 17.019 -2.21739 -61.037 84.2843 -63.9178
lowerback 21.1486 -2.82453 3.78198
upperback 7.13154 -1.84697 6.7213
thorax -3.93537 -0.669663 5.53498
lowerneck -4.30683 2.26513 2.47455
upperneck -15.7947 2.40371 -9.63969
head -3.82035 1.70921 -3.43971
rclavicle 1.74931e-014 2.38542e-014
rhumerus -43.9373 30.7566 -78.937
rradius 41.1435
rwrist 4.05849
rhand -3.88557 -15.5637
rfingers 7.12502
rthumb 21.8638 -44.3484
lclavicle 1.74931e-014 2.38542e-014
lhumerus -47.1827 -7.51871 86.1027
lradius 54.0927
lwrist 2.42698
lhand -9.71687 8.23492
lfingers 7.12502
lthumb 16.2563 37.5734
rfemur -17.2676 10.7487 23.4629
rtibia 40.2627
rfoot -24.4585 -4.2371
rtoes -9.6957
lfemur -23.6602 7.82792 -6.58417
ltibia 69.3779
lfoot -22.4223 -22.0476
ltoes -0.0992635
182
root -29.2496 17.0192 -2.20366 -59.0252 84.3597 -61.9329
lowerback 21.1105 -2.60577 3.60313
upperback 7.13102 -1.61007 6.69133
thorax -3.92899 -0.556446 5.54456
lowerneck -4.25484 2.26945 2.39122
upperneck -15.7659 2.42271 -9.54831
head -3.82248 1.71958 -3.39776
rclavicle 2.14687e-014 1.1291e-013
rhumerus -43.2813 30.6492 -78.8445
rradius 40.7311
rwrist 4.9237
rhand -4.28988 -15.7537
rfingers 7.12502
rthumb 21.4756 -44.5833
lclavicle 2.14687e-014 1.1291e-013
lhumerus -47.5022 -7.131 85.9868
lradius 53.4403
lwrist 2.15271
lhand -9.4526 8.10831
lfingers 7.12502
lthumb 16.5107 37.4258
rfemur -16.7028 10.7307 23.4057
rtibia 40.1392
rfoot -24.9118 -4.14213
rtoes -9.58116
lfemur -25.0937 8.37523 -6.95867
ltibia 69.2836
lfoot -22.9871 -21.1946
ltoes -0.705913
183
root -29.1085 17.0251 -2.19123 -57.0296 84.4222 -59.9523
lowerback 21.1169 -2.38931 3.4268
upperback 7.10907 -1.37367 6.63661
thorax -3.97034 -0.443655 5.52861
lowerneck -4.19161 2.27255 2.31956
upperneck -15.7277 2.44166 -9.4367
head -3.82391 1.72781 -3.35147
rclavicle -2.3059e-014 3.97569e-014
rhumerus -42.667 30.4417 -78.7602
rradius 40.4385
rwrist 5.73401
rhand -4.82105 -16.0083
rfingers 7.12502
rthumb 20.9653 -44.8952
lclavicle -2.3059e-014 3.97569e-014
lhumerus -47.857 -6.7685 85.835
lradius 52.813
lwrist 1.93547
lhand -9.03437 7.88196
lfingers 7.12502
lthumb 16.9134 37.1655
rfemur -16.0538 10.719 23.3534
rtibia 39.8818
rfoot -25.3135 -4.04538
rtoes -9.43133
lfemur -26.4323 8.83009 -7.3735
ltibia 68.8342
lfoot -23.4656 -20.4508
ltoes -1.26562
184
root -28.9656 17.0361 -2.18074 -55.1544 84.4573 -58.0823
lowerback 21.139 -2.17251 3.27157
upperback 7.08203 -1.13251 6.56635
thorax -4.02717 -0.328309 5.48302
lowerneck -4.12855 2.26817 2.27245
upperneck -15.6861 2.44959 -9.32927
head -3.82438 1.72914 -3.31038
rclavicle 7.95139e-015 -4.13472e-014
rhumerus -42.1036 30.1462 -78.6825
rradius 40.2943
rwrist 6.42176
rhand -5.50051 -16.3235
rfingers 7.12502
rthumb 20.3125 -45.2813
lclavicle 7.95139e-015 -4.13472e-014
lhumerus -48.2194 -6.44997 85.6589
lradius 52.2117
lwrist 1.75095
lhand -8.45807 7.54469
lfingers 7.12502
lthumb 17.468 36.7799
rfemur -15.3166 10.7091 23.3229
rtibia 39.4761
rfoot -25.6363 -3.94615
rtoes -9.30102
lfemur -27.6603 9.18108 -7.79856
ltibia 68.0446
lfoot -23.8183 -19.8208
ltoes -1.7717
185
root -28.8209 17.0514 -2.17218 -53.5245 84.4652 -56.4502
lowerback 21.1875 -1.9624 3.15048
upperback 7.04181 -0.891931 6.48122
thorax -4.11307 -0.212981 5.40274
lowerneck -4.08596 2.25816 2.25051
upperneck -15.6182 2.44926 -9.23372
head -3.81333 1.72412 -3.2762
rclavicle -7.15625e-015 4.77083e-014
rhumerus -41.6337 29.8067 -78.6451
rradius 40.3167
rwrist 6.91955
rhand -6.35136 -16.699
rfingers 7.12502
rthumb 19.4946 -45.7417
lclavicle -7.15625e-015 4.77083e-014
lhumerus -48.6008 -6.1756 85.4584
lradius 51.6435
lwrist 1.5556
lhand -7.73004 7.16465
lfingers 7.12502
lthumb 18.1686 36.3361
rfemur -14.4913 10.7003 23.3219
rtibia 38.9197
rfoot -25.8733 -3.8512
rtoes -9.20013
lfemur -28.7705 9.41845 -8.21248
ltibia 66.9299
lfoot -24.0877 -19.2969
ltoes -2.11713
